<?xml version="1.0" encoding="UTF-8"?>
<svg width="147px" height="265px" viewBox="0 0 147 265" version="1.1" xmlns="http://www.w3.org/2000/svg" xmlns:xlink="http://www.w3.org/1999/xlink">
    <title>Group 4</title>
    <g id="Page-1" stroke="none" stroke-width="1" fill="none" fill-rule="evenodd">
        <g id="Home---Sketch" transform="translate(-316, -1960)">
            <g id="Group-4" transform="translate(316, 1960)">
                <path d="M141.657905,22.5242644 C140.48769,18.768039 138.416976,15.657483 135.389209,13.0704428 C128.411424,3.32868753 115.352002,1.27388828 104.167535,0 C102.27083,0.0654394665 100.609038,1.26080039 98.7166838,1.56618457 C93.1048739,1.9500961 87.8106315,4.07469745 82.5076887,5.87210146 C80.8937496,6.67482559 79.8844939,8.41987803 78.2879557,9.36656898 C76.7436204,10.2827215 74.7338094,10.6099188 73.2068751,11.6525877 C71.7321437,12.6603555 70.6750353,14.2047269 69.2177048,15.3259231 C64.7761096,18.4975559 60.7956398,22.3497591 56.2931411,25.3774251 C50.9771476,30.3944509 46.8444194,36.388706 41.9199474,41.7285665 C40.8193367,43.1595095 40.7062304,45.3190119 39.6317211,46.7892186 C36.0775748,50.9424434 33.0411071,55.523206 30.5875717,60.4049902 C29.6174681,61.9537243 27.6381088,62.89169 26.7028071,64.4622372 C25.7631553,66.037147 25.7979572,68.1748362 24.9018077,69.762834 C23.9926075,71.3639196 22.1698568,72.4502147 21.304159,74.0600256 C20.4297607,75.6916496 20.0382391,77.567581 19.2073432,79.1948424 C16.5449962,83.3698804 16.0925712,84.7659223 14.98326,89.4339376 C11.2725051,95.9298953 7.94022107,102.58727 6.34803314,109.925216 C3.78139141,115.046945 3.14625634,120.818706 1.19299848,126.03205 C0.444757164,137.405429 -0.725457456,148.551952 0.605716052,159.894793 C0.679670136,161.801262 1.24520136,163.668468 1.34525689,165.509499 C1.4540129,167.415969 0.627467253,169.313713 0.7623247,171.154743 C0.897182147,173.061213 1.63237274,174.915331 1.80203211,176.747636 C3.34636739,182.231464 3.48992532,187.959598 4.56443465,193.51759 C4.87330171,195.42406 3.99890343,197.457046 4.3425724,199.271901 C5.89560816,208.455239 8.6145083,213.06654 10.6721719,221.141771 C15.8620085,233.339687 21.9175429,245.856076 32.0623031,254.520261 C33.6196891,255.733073 35.8470121,255.959929 37.4609512,256.928434 C42.0852566,260.614857 47.6535641,262.604217 53.3436783,263.899918 C63.0708154,265.7933 73.8376599,265.3963 82.9122611,261.500471 C87.0493395,260.937692 90.6165365,259.729243 94.0140741,257.172741 C97.4986165,255.353524 100.722145,253.132944 103.575902,250.345223 C109.344321,245.310747 113.050725,238.622833 117.009444,232.113788 C117.822939,230.50834 117.522772,228.396826 118.279714,226.660499 C118.988803,225.02015 120.537489,223.62847 121.194375,221.865967 C121.816459,220.190717 121.498892,218.175181 122.073124,216.390865 C123.626159,213.070903 124.705019,209.646238 125.218347,205.920551 C125.640321,204.153685 126.971494,202.613676 127.328214,200.881712 C127.719735,197.291266 128.289617,193.753173 129.090061,190.280518 C129.029158,186.659534 129.211868,183.095265 129.890505,179.561534 C130.038413,177.742316 129.451131,175.888198 129.542486,174.147508 C129.638191,172.310841 130.756203,170.61814 130.795355,168.87745 C131.134674,165.21284 130.973715,161.587493 130.490838,158.088663 C130.690949,152.587385 130.34293,146.745822 128.689839,141.881489 C128.467977,139.381701 129.525085,137.58866 129.525085,136.524178 C129.020457,132.92937 129.211868,129.526517 130.268976,126.005874 C131.765459,122.53322 132.748613,119.889465 133.570808,116.037262 C136.372363,110.954797 136.459368,106.487463 138.229916,100.964372 C138.760645,99.3501981 140.217975,98.0108704 140.735654,96.2745432 C141.736209,92.9022293 142.149482,89.3684981 142.410497,85.8085912 C143.846076,80.7697522 144.555165,75.4735181 146.138652,70.447767 C146.330063,68.733253 145.355609,66.7613438 145.499167,64.9421266 C145.638375,63.2145247 146.264809,61.5261864 146.351814,59.698244 C146.782488,54.1620651 146.121251,49.4242478 147,43.7266515 C146.508423,36.5413981 144.315902,29.316881 141.657905,22.5242644 Z" id="Fill-15" fill="#E33F3E"></path>
                <path d="M85.2369885,62.016201 C88.4566687,62.016201 91.1550214,64.1056291 93.7857946,65.2634651 C96.5903436,66.505588 100.355487,67.1310856 102.011185,69.313673 C103.681363,71.5095688 102.730423,74.6991629 102.730423,77.4540141 C102.947643,82.9415355 99.3900656,87.8390487 94.3216035,90.5584106 C86.1541388,93.3620594 74.3229002,92.3328718 69.1723772,85.1906652 C62.5302783,74.6015676 72.0396787,61.4749903 85.2369885,62.016201" id="Fill-31" fill="#FFFFFF"></path>
                <path d="M59.2056764,68.0431261 C61.8029626,70.1092455 63.1822667,72.6458673 62.980614,76.0171195 C62.8031597,78.9833305 62.7023334,82.7637153 60.3792949,85.4312595 C55.7130525,89.7762472 47.1226496,91.9160104 42.0127714,87.7796803 C29.7643895,78.5251021 48.4696893,57.0906478 59.2056764,68.0431261" id="Fill-33" fill="#FFFFFF"></path>
            </g>
        </g>
    </g>
</svg>