<svg id="Layer_2" xmlns="http://www.w3.org/2000/svg" viewBox="0 0 374.68 100.4">

  <g id="Layout">
    <polyline fill="#fff" points="56.9 63.47 56.9 63.47 56.9 63.47" />
    <polygon fill="#fff" points="56.25 58.13 53.43 .82 45.09 .82 56.25 58.13" />
    <line fill="#fff" x1="56.9" y1="63.47" x2="56.9" y2="63.47" />
    <polyline fill="#fff" points="56.9 63.47 56.9 63.47 56.9 63.47" />
    <line fill="#fff" x1="56.9" y1="63.47" x2="56.9" y2="63.47" />
    <polygon fill="#fff" points="57.51 58.8 70.03 .82 60.36 .82 57.51 58.8" />
    <line fill="#fff" x1="56.9" y1="63.47" x2="56.9" y2="63.47" />
    <line fill="#fff" x1="56.9" y1="63.47" x2="56.9" y2="63.47" />
    <line fill="#fff" x1="56.9" y1="63.47" x2="56.9" y2="63.47" />
    <line fill="#fff" x1="56.9" y1="63.47" x2="56.9" y2="63.47" />
    <polygon fill="#fff" points="58.77 58.9 82.96 10.92 79.48 .82 77.44 .82 58.77 58.9" />
    <line fill="#fff" x1="56.9" y1="63.47" x2="56.9" y2="63.47" />
    <line fill="#fff" x1="56.9" y1="63.47" x2="56.9" y2="63.47" />
    <polygon fill="#fff" points="60.42 58.8 88.31 26.46 86.01 19.77 60.42 58.8" />
    <line fill="#fff" x1="56.9" y1="63.47" x2="56.9" y2="63.47" />
    <line fill="#fff" x1="56.9" y1="63.47" x2="56.9" y2="63.47" />
    <line fill="#fff" x1="56.9" y1="63.47" x2="56.9" y2="63.47" />
    <polyline fill="#fff" points="56.9 63.47 56.9 63.47 56.9 63.47 56.9 63.47" />
    <line fill="#fff" x1="56.9" y1="63.47" x2="56.9" y2="63.47" />
    <polygon fill="#fff" points="54.44 57.68 34.39 .98 31.03 10.69 54.44 57.68" />
    <line fill="#fff" x1="56.89" y1="63.47" x2="56.9" y2="63.47" />
    <line fill="#fff" x1="56.9" y1="63.47" x2="56.9" y2="63.47" />
    <polyline fill="#fff" points="56.9 63.47 56.9 63.47 56.9 63.47" />
    <polygon fill="#fff" points="52.9 64.05 11.88 66.07 8.84 74.83 52.9 64.05" />
    <line fill="#fff" x1="56.9" y1="63.47" x2="56.9" y2="63.47" />
    <line fill="#fff" x1="56.9" y1="63.47" x2="56.9" y2="63.47" />
    <line fill="#fff" x1="56.9" y1="63.47" x2="56.9" y2="63.47" />
    <line fill="#fff" x1="56.9" y1="63.47" x2="56.9" y2="63.47" />
    <polygon fill="#fff" points="61.05 60.39 93.05 40.2 91.08 34.49 61.05 60.39" />
    <line fill="#fff" x1="56.9" y1="63.47" x2="56.9" y2="63.47" />
    <line fill="#fff" x1="56.9" y1="63.47" x2="56.9" y2="63.47" />
    <line fill="#fff" x1="56.9" y1="63.47" x2="56.9" y2="63.47" />
    <line fill="#fff" x1="56.9" y1="63.47" x2="56.9" y2="63.47" />
    <line fill="#fff" x1="56.9" y1="63.47" x2="56.9" y2="63.47" />
    <line fill="#fff" x1="56.9" y1="63.47" x2="56.9" y2="63.47" />
    <line fill="#fff" x1="56.9" y1="63.47" x2="56.9" y2="63.47" />
    <line fill="#fff" x1="56.9" y1="63.47" x2="56.9" y2="63.47" />
    <line fill="#fff" x1="56.9" y1="63.47" x2="56.9" y2="63.47" />
    <polygon fill="#fff" points="53.78 59.45 27.75 20.16 25.11 27.81 53.78 59.45" />
    <line fill="#fff" x1="56.9" y1="63.47" x2="56.9" y2="63.47" />
    <line fill="#fff" x1="56.9" y1="63.47" x2="56.9" y2="63.47" />
    <line fill="#fff" x1="56.9" y1="63.47" x2="56.9" y2="63.47" />
    <line fill="#fff" x1="56.9" y1="63.47" x2="56.89" y2="63.47" />
    <line fill="#fff" x1="56.9" y1="63.47" x2="56.9" y2="63.47" />
    <line fill="#fff" x1="56.89" y1="63.47" x2="56.89" y2="63.47" />
    <line fill="#fff" x1="56.9" y1="63.47" x2="56.89" y2="63.47" />
    <polygon fill="#fff" points="52.3 62.86 15.75 54.87 13.64 60.95 52.3 62.86" />
    <polyline fill="#fff" points="56.9 63.47 56.9 63.47 56.9 63.47" />
    <line fill="#fff" x1="56.9" y1="63.47" x2="56.9" y2="63.47" />
    <line fill="#fff" x1="56.9" y1="63.47" x2="56.9" y2="63.47" />
    <line fill="#fff" x1="56.9" y1="63.47" x2="56.9" y2="63.47" />
    <line fill="#fff" x1="56.9" y1="63.47" x2="56.9" y2="63.47" />
    <line fill="#fff" x1="56.9" y1="63.47" x2="56.9" y2="63.47" />
    <line fill="#fff" x1="56.9" y1="63.47" x2="56.9" y2="63.47" />
    <line fill="#fff" x1="56.9" y1="63.47" x2="56.9" y2="63.47" />
    <line fill="#fff" x1="56.9" y1="63.47" x2="56.9" y2="63.47" />
    <line fill="#fff" x1="56.9" y1="63.47" x2="56.9" y2="63.47" />
    <polygon fill="#fff" points="53.29 64.92 7.67 78.21 3.22 91.1 53.29 64.92" />
    <line fill="#fff" x1="56.9" y1="63.47" x2="56.9" y2="63.47" />
    <line fill="#fff" x1="56.9" y1="63.47" x2="56.9" y2="63.47" />
    <line fill="#fff" x1="56.9" y1="63.47" x2="56.9" y2="63.47" />
    <line fill="#fff" x1="56.9" y1="63.47" x2="56.9" y2="63.47" />
    <line fill="#fff" x1="56.9" y1="63.47" x2="56.9" y2="63.47" />
    <line fill="#fff" x1="56.9" y1="63.47" x2="56.9" y2="63.47" />
    <line fill="#fff" x1="56.9" y1="63.47" x2="56.9" y2="63.47" />
    <polygon fill="#fff" points="53.03 61.83 19.54 43.9 17.28 50.44 53.03 61.83" />
    <line fill="#fff" x1="56.9" y1="63.47" x2="56.9" y2="63.47" />
    <line fill="#fff" x1="56.9" y1="63.47" x2="56.9" y2="63.47" />
    <line fill="#fff" x1="56.9" y1="63.47" x2="56.9" y2="63.47" />
    <line fill="#fff" x1="56.9" y1="63.47" x2="56.9" y2="63.47" />
    <polyline fill="#fff" points="56.9 63.47 56.9 63.47 56.9 63.47 56.9 63.47" />
    <line fill="#fff" x1="56.9" y1="63.47" x2="56.9" y2="63.47" />
    <line fill="#fff" x1="56.9" y1="63.47" x2="56.9" y2="63.47" />
    <polygon fill="#fff" points="53.5 60.9 23.17 33.42 20.7 40.55 53.5 60.9" />
    <line fill="#fff" x1="56.9" y1="63.47" x2="56.9" y2="63.47" />
    <line fill="#fff" x1="56.9" y1="63.47" x2="56.9" y2="63.47" />
    <line fill="#fff" x1="56.9" y1="63.47" x2="56.9" y2="63.47" />
    <line fill="#fff" x1="56.9" y1="63.47" x2="56.9" y2="63.47" />
    <line fill="#fff" x1="56.9" y1="63.47" x2="56.9" y2="63.47" />
    <line fill="#fff" x1="56.9" y1="63.47" x2="56.9" y2="63.47" />
    <line fill="#fff" x1="56.9" y1="63.47" x2="56.9" y2="63.47" />
    <line fill="#fff" x1="56.9" y1="63.47" x2="56.9" y2="63.47" />
    <line fill="#fff" x1="56.9" y1="63.47" x2="56.9" y2="63.47" />
    <line fill="#fff" x1="56.9" y1="63.47" x2="56.9" y2="63.47" />
    <polygon fill="#fff" points="61.25 65.27 110.38 90.5 106.72 79.89 61.25 65.27" />
    <line fill="#fff" x1="56.9" y1="63.47" x2="56.9" y2="63.47" />
    <polygon fill="#fff" points="56.09 68.88 49.06 100.4 53.6 100.4 56.09 68.88" />
    <line fill="#fff" x1="56.9" y1="63.47" x2="56.9" y2="63.47" />
    <line fill="#fff" x1="56.9" y1="63.47" x2="56.9" y2="63.47" />
    <line fill="#fff" x1="56.9" y1="63.47" x2="56.9" y2="63.47" />
    <line fill="#fff" x1="56.9" y1="63.47" x2="56.9" y2="63.47" />
    <line fill="#fff" x1="56.9" y1="63.47" x2="56.9" y2="63.47" />
    <line fill="#fff" x1="56.9" y1="63.47" x2="56.9" y2="63.47" />
    <line fill="#fff" x1="56.9" y1="63.47" x2="56.9" y2="63.47" />
    <line fill="#fff" x1="56.9" y1="63.47" x2="56.9" y2="63.47" />
    <line fill="#fff" x1="56.9" y1="63.47" x2="56.9" y2="63.47" />
    <polyline fill="#fff" points="56.9 63.47 56.9 63.47 56.9 63.47" />
    <line fill="#fff" x1="56.9" y1="63.47" x2="56.9" y2="63.47" />
    <line fill="#fff" x1="56.9" y1="63.47" x2="56.9" y2="63.47" />
    <line fill="#fff" x1="56.9" y1="63.47" x2="56.9" y2="63.47" />
    <line fill="#fff" x1="56.9" y1="63.47" x2="56.9" y2="63.47" />
    <polygon fill="#fff" points="60.99 61.75 96.54 50.32 94.41 44.17 60.99 61.75" />
    <line fill="#fff" x1="56.9" y1="63.47" x2="56.9" y2="63.47" />
    <line fill="#fff" x1="56.9" y1="63.47" x2="56.9" y2="63.47" />
    <line fill="#fff" x1="56.9" y1="63.47" x2="56.9" y2="63.47" />
    <line fill="#fff" x1="56.9" y1="63.47" x2="56.9" y2="63.47" />
    <polygon fill="#fff" points="55.02 68.16 39.18 100.4 44.89 100.4 55.02 68.16" />
    <line fill="#fff" x1="56.9" y1="63.47" x2="56.9" y2="63.47" />
    <line fill="#fff" x1="56.9" y1="63.47" x2="56.9" y2="63.47" />
    <line fill="#fff" x1="56.9" y1="63.47" x2="56.9" y2="63.47" />
    <line fill="#fff" x1="56.9" y1="63.47" x2="56.9" y2="63.47" />
    <line fill="#fff" x1="56.9" y1="63.47" x2="56.9" y2="63.47" />
    <line fill="#fff" x1="56.9" y1="63.47" x2="56.9" y2="63.47" />
    <line fill="#fff" x1="56.9" y1="63.47" x2="56.9" y2="63.47" />
    <line fill="#fff" x1="56.9" y1="63.47" x2="56.9" y2="63.47" />
    <line fill="#fff" x1="56.89" y1="63.47" x2="56.9" y2="63.47" />
    <line fill="#fff" x1="56.9" y1="63.47" x2="56.9" y2="63.47" />
    <line fill="#fff" x1="56.9" y1="63.47" x2="56.9" y2="63.47" />
    <line fill="#fff" x1="56.9" y1="63.47" x2="56.9" y2="63.47" />
    <line fill="#fff" x1="56.9" y1="63.47" x2="56.9" y2="63.47" />
    <polygon fill="#fff" points="51.74 67.2 .17 99.92 0 100.4 11.19 100.4 51.74 67.2" />
    <line fill="#fff" x1="56.9" y1="63.47" x2="56.9" y2="63.47" />
    <polygon fill="#fff" points="53.71 67.53 23.72 100.4 31.68 100.4 53.71 67.53" />
    <line fill="#fff" x1="56.9" y1="63.47" x2="56.9" y2="63.47" />
    <polyline fill="#fff" points="56.9 63.47 56.9 63.47 56.9 63.47" />
    <line fill="#fff" x1="56.9" y1="63.47" x2="56.9" y2="63.47" />
    <polygon fill="#fff" points="57.65 68.08 60.19 100.4 65.67 100.4 57.65 68.08" />
    <line fill="#fff" x1="56.9" y1="63.47" x2="56.9" y2="63.47" />
    <polyline fill="#fff" points="56.9 63.47 56.9 63.47 56.9 63.47" />
    <line fill="#fff" x1="56.9" y1="63.47" x2="56.9" y2="63.47" />
    <line fill="#fff" x1="56.9" y1="63.47" x2="56.9" y2="63.47" />
    <polygon fill="#fff" points="61.56 64.08 104.47 73.35 101.96 66.07 61.56 64.08" />
    <polyline fill="#fff" points="56.9 63.47 56.9 63.47 56.9 63.47" />
    <line fill="#fff" x1="56.9" y1="63.47" x2="56.9" y2="63.47" />
    <line fill="#fff" x1="56.9" y1="63.47" x2="56.9" y2="63.47" />
    <line fill="#fff" x1="56.9" y1="63.47" x2="56.9" y2="63.47" />
    <line fill="#fff" x1="56.9" y1="63.47" x2="56.9" y2="63.47" />
    <line fill="#fff" x1="56.9" y1="63.47" x2="56.9" y2="63.47" />
    <polygon fill="#fff" points="58.86 68.91 67.93 100.4 72.67 100.4 58.86 68.91" />
    <polyline fill="#fff" points="56.9 63.47 56.9 63.47 56.9 63.47" />
    <line fill="#fff" x1="56.9" y1="63.47" x2="56.9" y2="63.47" />
    <line fill="#fff" x1="56.9" y1="63.47" x2="56.9" y2="63.47" />
    <polygon fill="#fff" points="61.56 62.85 100.2 60.95 98.13 54.96 61.56 62.85" />
    <polygon fill="#fff" points="61.18 68.64 84.53 100.4 90.68 100.4 61.18 68.64" />
    <line fill="#fff" x1="56.9" y1="63.47" x2="56.9" y2="63.47" />
    <polyline fill="#fff" points="56.9 63.47 56.9 63.47 56.9 63.47 56.9 63.47" />
    <polyline fill="#fff" points="56.9 63.47 56.9 63.47 56.9 63.47" />
    <line fill="#fff" x1="56.9" y1="63.47" x2="56.9" y2="63.47" />
    <line fill="#fff" x1="56.9" y1="63.47" x2="56.9" y2="63.47" />
    <line fill="#fff" x1="56.9" y1="63.47" x2="56.9" y2="63.47" />
    <polygon fill="#fff" points="60.35 66.16 97.23 100.4 113.46 100.4 60.35 66.16" />
    <path fill="#fff"
      d="m152.93,23.81c0,13.89-9.92,23.81-24.14,23.81s-24.47-9.99-24.47-23.81S114.57,0,128.79,0c11.44,0,21.16,7.27,23.21,17.26h-14.09c-1.72-3.37-4.89-5.62-9.06-5.62-6.28,0-10.78,5.09-10.78,12.1s4.5,12.1,10.78,12.1c4.23,0,7.8-2.18,9.19-5.42h-9.19v-9.99h23.94c.07.86.13,2.25.13,3.37Z" />
    <path fill="#fff"
      d="m184.81,39.22h-15.34l-2.31,7.74h-14.55L168.94.66h16.4l16.34,46.29h-14.55l-2.31-7.74Zm-2.65-8.8l-5.03-16.6-5.03,16.6h10.05Z" />
    <path fill="#fff"
      d="m259.94.66v46.29h-13.49v-28.9l-7.94,28.9h-11.37l-7.94-28.9v28.9h-13.49V.66h19.51l7.61,27.71,7.61-27.71h19.51Z" />
    <path fill="#fff"
      d="m321.57.66v46.29h-13.49v-28.9l-7.94,28.9h-11.37l-7.94-28.9v28.9h-13.49V.66h19.51l7.61,27.71,7.61-27.71h19.51Z" />
    <path fill="#fff"
      d="m357.82,39.22h-15.34l-2.31,7.74h-14.55L341.94.66h16.4l16.34,46.29h-14.55l-2.31-7.74Zm-2.65-8.8l-5.03-16.6-5.03,16.6h10.05Z" />
    <path fill="#fff"
      d="m161.86,68.24h-13.09c0-3.11-2.31-5.36-5.75-5.36-2.71,0-4.83,1.39-4.83,3.44,0,7.08,25.13.86,25.13,18.19,0,9.46-8.53,15.08-20.3,15.08s-19.51-6.22-19.71-16.27h13.56c0,3.11,2.78,5.36,6.81,5.36,3.31,0,5.89-1.46,5.89-3.57,0-6.68-25.13-.86-25.13-17.92,0-9.32,7.94-15.21,18.92-15.21s18.52,6.75,18.52,16.27Z" />
    <path fill="#fff"
      d="m208.42,69.03c0,9.46-7.08,16.34-16.8,16.34h-8.93v13.56h-13.49v-46.3h22.42c9.72,0,16.8,6.88,16.8,16.4Zm-13.76.2c0-2.71-1.92-4.7-4.56-4.7h-7.41v9.46h7.41c2.65,0,4.56-2.18,4.56-4.76Z" />
    <path fill="#fff"
      d="m237.72,91.19h-15.34l-2.31,7.74h-14.55l16.34-46.3h16.4l16.34,46.3h-14.55l-2.31-7.74Zm-2.65-8.8l-5.03-16.6-5.03,16.6h10.05Z" />
    <path fill="#fff"
      d="m278.78,99.58c-14.22,0-24.47-9.99-24.47-23.81s10.25-23.81,24.47-23.81c12.9,0,22.62,8.2,24.07,20.11h-13.82c-1.19-4.5-5.03-7.74-10.25-7.74-6.28,0-10.71,4.76-10.71,11.38s4.43,11.51,10.71,11.51c5.16,0,8.99-3.24,10.25-7.74h13.82c-1.46,11.84-11.18,20.11-24.07,20.11Z" />
    <path fill="#fff" d="m322.23,64.53v5.49h18.92v11.38h-18.92v5.62h20.24v11.9h-33.73v-46.3h33.73v11.9h-20.24Z" />
  </g>
</svg>