<svg width="256" height="59" viewBox="0 0 256 59" fill="none" xmlns="http://www.w3.org/2000/svg">
<path d="M246.814 26.9515V31.5027H245.768V26.9515H246.814Z" fill="#80D07C"/>
<path d="M250.957 26.9515V31.5027H250.177L248.423 29.0318V31.5027H247.377V26.9515H248.158L249.912 29.4224V26.9515H250.957Z" fill="#80D07C"/>
<path d="M251.314 29.2271C251.306 28.9141 251.362 28.6028 251.478 28.312C251.594 28.0212 251.768 27.7571 251.989 27.5357C252.211 27.3144 252.475 27.1403 252.765 27.0243C253.056 26.9083 253.368 26.8527 253.681 26.8608C254.068 26.8541 254.45 26.9468 254.792 27.1299C255.133 27.3131 255.422 27.5806 255.63 27.9071L254.734 28.4302C254.624 28.2527 254.47 28.1074 254.286 28.0091C254.102 27.9107 253.896 27.8629 253.687 27.8704C252.882 27.8704 252.361 28.411 252.361 29.2236C252.361 30.0362 252.884 30.575 253.687 30.575C253.896 30.5838 254.103 30.5367 254.287 30.4386C254.471 30.3405 254.625 30.1949 254.734 30.017L255.63 30.5401C255.423 30.8676 255.134 31.136 254.793 31.3193C254.451 31.5026 254.068 31.5946 253.681 31.5864C253.368 31.5945 253.057 31.539 252.767 31.4234C252.477 31.3078 252.213 31.1345 251.992 30.9138C251.77 30.6932 251.596 30.43 251.48 30.14C251.363 29.85 251.307 29.5395 251.314 29.2271Z" fill="#80D07C"/>
<path d="M59 39.6111L64.1249 36.6467C65.0525 38.8002 66.6498 40.2493 69.5828 40.2493C72.4059 40.2493 73.1121 39.135 73.1121 38.1324C73.1121 36.5351 71.6265 35.9039 67.7274 34.8193C63.865 33.7434 60.0776 31.8863 60.0776 26.9096C60.0776 21.8964 64.3097 19 68.7964 19C73.0668 19 76.4096 21.0437 78.3033 24.8677L73.29 27.8007C72.3989 25.9453 71.1731 24.7927 68.7964 24.7927C66.9393 24.7927 66.0064 25.7221 66.0064 26.7614C66.0064 27.9506 66.6376 28.7667 70.6848 29.9926C74.6222 31.1801 79.0409 32.5541 79.0409 38.0504C79.0409 43.0637 75.0303 46.035 69.3857 46.035C63.9453 46.0368 60.4578 43.4369 59 39.6111Z" fill="#80D07C"/>
<path d="M105.97 26.9497L100.041 45.5171H94.8359L91.8716 35.6022L88.9072 45.5171H83.6951L77.7524 26.9497H83.6951L86.3683 36.9013L89.2647 26.9497H94.461L97.3574 36.9013L100.041 26.9497H105.97Z" fill="#80D07C"/>
<path d="M115.408 41.0601C116.931 41.0601 118.23 40.4655 118.973 39.6494L123.43 42.211C121.609 44.7359 118.861 46.0368 115.333 46.0368C108.983 46.0368 105.045 41.7664 105.045 36.2334C105.045 30.7005 109.056 26.4284 114.924 26.4284C120.345 26.4284 124.356 30.6256 124.356 36.2334C124.359 36.9814 124.284 37.7277 124.132 38.4602H110.95C111.658 40.3923 113.365 41.0601 115.408 41.0601ZM118.824 34.3014C118.23 32.1479 116.558 31.3684 114.889 31.3684C112.772 31.3684 111.36 32.4146 110.84 34.3014H118.824Z" fill="#80D07C"/>
<path d="M135.275 41.0601C136.797 41.0601 138.098 40.4655 138.839 39.6494L143.296 42.211C141.477 44.7359 138.729 46.0368 135.2 46.0368C128.851 46.0368 124.912 41.7664 124.912 36.2334C124.912 30.7005 128.922 26.4284 134.79 26.4284C140.211 26.4284 144.222 30.6256 144.222 36.2334C144.225 36.9814 144.151 37.7276 144 38.4602H130.818C131.524 40.3923 133.233 41.0601 135.275 41.0601ZM138.691 34.3014C138.098 32.1479 136.424 31.3684 134.755 31.3684C132.638 31.3684 131.227 32.4146 130.708 34.3014H138.691Z" fill="#80D07C"/>
<path d="M152.393 32.2961V38.87C152.393 40.4655 153.767 40.6137 156.219 40.4655V45.5224C148.941 46.2652 146.824 44.0733 146.824 38.8752V32.3013H143.859V26.9497H146.824V23.4134L152.393 21.7429V26.9428H156.219V32.2891L152.393 32.2961Z" fill="#80D07C"/>
<path d="M182.103 37.9039C182.103 42.5092 178.354 45.5171 173.712 45.5171H162.793V19.5214H172.969C177.503 19.5214 181.176 22.4561 181.176 26.9497C181.176 29.1033 180.321 30.8104 178.909 32.0362C180.841 33.2621 182.103 35.2709 182.103 37.9039ZM168.744 25.0927V29.6909H172.978C174.314 29.6909 175.245 28.7249 175.245 27.3874C175.245 26.05 174.352 25.0857 172.978 25.0857L168.744 25.0927ZM176.171 37.4575C176.171 36.0102 175.205 34.971 173.73 34.971H168.744V39.9459H173.721C175.196 39.9459 176.162 38.9066 176.162 37.4575H176.171Z" fill="#80D07C"/>
<path d="M202.824 26.9497V45.5171H197.255V43.7734C196.034 45.1841 194.21 46.0403 191.722 46.0403C186.857 46.0403 182.846 41.7698 182.846 36.2369C182.846 30.704 186.857 26.4318 191.722 26.4318C194.21 26.4318 196.029 27.2863 197.255 28.6987V26.955L202.824 26.9497ZM197.255 36.2334C197.255 33.4435 195.398 31.6997 192.836 31.6997C190.275 31.6997 188.416 33.4435 188.416 36.2334C188.416 39.0234 190.273 40.7672 192.836 40.7672C195.399 40.7672 197.255 39.0182 197.255 36.2334Z" fill="#80D07C"/>
<path d="M225.402 36.2334C225.402 41.7663 221.391 46.0368 216.526 46.0368C214.038 46.0368 212.219 45.1823 210.993 43.7699V45.5137H205.424V19.5214H210.993V28.6952C212.214 27.2828 214.038 26.4284 216.526 26.4284C221.391 26.4284 225.402 30.7005 225.402 36.2334ZM219.832 36.2334C219.832 33.4435 217.975 31.6997 215.412 31.6997C212.849 31.6997 210.993 33.4435 210.993 36.2334C210.993 39.0234 212.85 40.7672 215.412 40.7672C217.974 40.7672 219.836 39.0182 219.836 36.2334H219.832Z" fill="#80D07C"/>
<path d="M243.97 26.9497L237.622 44.9591C235.544 50.8635 232.238 53.2036 227.04 52.9438V47.7439C229.64 47.7439 230.864 46.9278 231.681 44.6627L224.292 26.9497H230.419L234.541 38.312L238.029 26.9497H243.97Z" fill="#80D07C"/>
<path d="M29.8807 22.455C30.7749 21.0629 31.3769 19.5036 31.6501 17.8718C31.7195 17.4622 31.766 17.0491 31.7895 16.6343H31.8238C32.3682 16.6343 32.8902 16.4181 33.2751 16.0332C33.6601 15.6482 33.8763 15.1262 33.8763 14.5818C33.8763 14.0375 33.6601 13.5154 33.2751 13.1305C32.8902 12.7456 32.3682 12.5294 31.8238 12.5294C31.6798 12.5297 31.5361 12.5441 31.3949 12.5723C30.7217 10.1105 29.3005 7.91857 27.3276 6.29954C25.3548 4.68052 22.9277 3.71431 20.3818 3.53449H20.3711C20.5777 3.17495 20.6859 2.76733 20.6847 2.35268C20.6836 1.93802 20.5732 1.531 20.3646 1.17261C20.1561 0.814218 19.8567 0.517118 19.4968 0.311259C19.1369 0.105401 18.729 -0.00194382 18.3144 2.6647e-05V3.55808C15.8289 3.79907 13.4752 4.78946 11.5652 6.39805C9.65522 8.00664 8.27896 10.1575 7.61874 12.5658C7.47748 12.5377 7.33383 12.5233 7.1898 12.5229C6.64545 12.5229 6.12339 12.7392 5.73848 13.1241C5.35356 13.509 5.13732 14.031 5.13732 14.5754C5.13732 15.1197 5.35356 15.6418 5.73848 16.0267C6.12339 16.4116 6.64545 16.6279 7.1898 16.6279H7.21768C7.24556 17.0568 7.2906 17.4579 7.35709 17.8654C7.63229 19.5014 8.23719 21.0643 9.13504 22.4593C5.62459 24.6616 2.90722 27.9251 1.37728 31.7764C-0.152667 35.6277 -0.415584 39.8664 0.62669 43.8772C1.66896 47.888 3.9622 51.4624 7.17359 54.0816C10.385 56.7008 14.3474 58.2285 18.4859 58.4431V50.4648C15.5219 50.2005 12.774 48.8029 10.8147 46.5632C8.85539 44.3234 7.83568 41.4141 7.96795 38.4412C8.10022 35.4683 9.37427 32.6611 11.5248 30.6041C13.6752 28.5472 16.5364 27.3992 19.5122 27.3992C22.488 27.3992 25.3491 28.5472 27.4996 30.6041C29.6501 32.6611 30.9241 35.4683 31.0564 38.4412C31.1887 41.4141 30.1689 44.3234 28.2096 46.5632C26.2503 48.8029 23.5025 50.2005 20.5384 50.4648V58.4495C24.6774 58.2338 28.6401 56.7051 31.8517 54.0853C35.0633 51.4654 37.3569 47.8906 38.3997 43.8793C39.4425 39.868 39.1803 35.6288 37.6512 31.7765C36.1222 27.9242 33.4057 24.6592 29.8957 22.455H29.8807ZM24.0643 10.8629C24.304 10.8629 24.5384 10.9341 24.7377 11.0673C24.9371 11.2005 25.0924 11.3899 25.184 11.6115C25.2757 11.833 25.2995 12.0768 25.2526 12.3119C25.2057 12.547 25.0901 12.7629 24.9204 12.9323C24.7507 13.1017 24.5346 13.2169 24.2994 13.2634C24.0642 13.3099 23.8205 13.2856 23.5991 13.1936C23.3777 13.1015 23.1886 12.9459 23.0557 12.7463C22.9228 12.5468 22.8521 12.3123 22.8525 12.0725C22.8531 11.7515 22.981 11.4439 23.2082 11.2171C23.4354 10.9903 23.7433 10.8629 24.0643 10.8629ZM19.5025 19.6776C20.3256 19.6802 21.1393 19.5018 21.8857 19.1548C22.6322 18.8079 23.2932 18.3011 23.8219 17.6702C23.8871 17.5929 23.9669 17.5292 24.0568 17.4827C24.1466 17.4362 24.2447 17.4079 24.3455 17.3993C24.4462 17.3908 24.5477 17.4021 24.6441 17.4328C24.7405 17.4634 24.8298 17.5128 24.9072 17.578C24.9845 17.6432 25.0482 17.723 25.0947 17.8128C25.1411 17.9026 25.1695 18.0007 25.178 18.1015C25.1866 18.2023 25.1752 18.3037 25.1446 18.4001C25.1139 18.4965 25.0646 18.5859 24.9994 18.6632C24.3243 19.4635 23.4827 20.1067 22.5333 20.548C21.5838 20.9892 20.5495 21.2178 19.5025 21.2178C18.4555 21.2178 17.4212 20.9892 16.4718 20.548C15.5223 20.1067 14.6807 19.4635 14.0056 18.6632C13.8809 18.5057 13.8224 18.3058 13.8427 18.1059C13.8629 17.906 13.9603 17.7219 14.1141 17.5926C14.2679 17.4634 14.4661 17.3992 14.6665 17.4136C14.8669 17.4281 15.0537 17.5202 15.1874 17.6702C15.715 18.2996 16.3744 18.8055 17.1188 19.1524C17.8633 19.4992 18.6748 19.6785 19.4961 19.6776H19.5025ZM14.9472 10.8629C15.187 10.8625 15.4216 10.9333 15.6212 11.0663C15.8208 11.1992 15.9764 11.3885 16.0684 11.61C16.1604 11.8315 16.1846 12.0753 16.1379 12.3106C16.0912 12.5458 15.9758 12.7619 15.8062 12.9315C15.6366 13.1011 15.4205 13.2166 15.1852 13.2633C14.9499 13.3099 14.7061 13.2858 14.4846 13.1938C14.2631 13.1018 14.0739 12.9462 13.9409 12.7466C13.8079 12.547 13.7371 12.3124 13.7376 12.0725C13.7381 11.753 13.8649 11.4466 14.0902 11.2201C14.3155 10.9936 14.6212 10.8652 14.9407 10.8629H14.9472Z" fill="#80D07C"/>
<path d="M29.5032 38.4416C29.5032 38.2722 29.486 38.1028 29.471 37.9419C29.456 37.7811 29.4389 37.6245 29.4131 37.4701C29.0566 35.1226 27.879 32.9777 26.0899 31.4167C24.3007 29.8558 22.016 28.9799 19.6419 28.9449C19.6053 28.9449 19.5701 28.9593 19.544 28.985C19.518 29.0106 19.503 29.0456 19.5025 29.0822C19.5026 29.1129 19.513 29.1427 19.532 29.1668C19.5511 29.1909 19.5777 29.2079 19.6075 29.2151C21.7964 29.7413 23.7445 30.9887 25.1384 32.7564C26.5322 34.5242 27.2908 36.7095 27.292 38.9606C27.2084 40.3803 26.5855 41.7144 25.5507 42.69C24.516 43.6656 23.1476 44.2089 21.7254 44.2089C20.3033 44.2089 18.9349 43.6656 17.9002 42.69C16.8654 41.7144 16.2425 40.3803 16.1589 38.9606C16.1715 38.6736 16.2944 38.4025 16.5019 38.2038C16.7095 38.0052 16.9857 37.8943 17.273 37.8943C17.5604 37.8943 17.8366 38.0052 18.0442 38.2038C18.2517 38.4025 18.3746 38.6736 18.3872 38.9606C18.4093 39.8319 18.7709 40.6601 19.3949 41.2685C20.019 41.8769 20.856 42.2174 21.7276 42.2174C22.5991 42.2174 23.4362 41.8769 24.0602 41.2685C24.6842 40.6601 25.0459 39.8319 25.068 38.9606C25.0685 36.9382 24.2829 34.9947 22.877 33.5408C21.4711 32.0868 19.5551 31.2364 17.5338 31.169C15.5124 31.1016 13.544 31.8226 12.0445 33.1797C10.5449 34.5368 9.63156 36.4236 9.49744 38.4416V38.4674C9.48242 38.6304 9.48242 38.7998 9.48242 38.9606C9.48242 39.1215 9.48243 39.3102 9.49958 39.4797C9.51674 39.6491 9.51459 39.8185 9.5296 39.9815C9.54461 40.1445 9.56392 40.2968 9.58751 40.4512C9.94448 42.7985 11.1221 44.9432 12.9112 46.5041C14.7002 48.065 16.9848 48.941 19.3588 48.9764C19.3922 48.9765 19.4245 48.9643 19.4497 48.9422C19.4748 48.9201 19.491 48.8896 19.4952 48.8564C19.4994 48.8232 19.4914 48.7896 19.4726 48.762C19.4537 48.7343 19.4255 48.7145 19.3931 48.7062C17.2043 48.18 15.2561 46.9326 13.8623 45.1649C12.4684 43.3971 11.7098 41.2118 11.7086 38.9606C11.7877 37.5375 12.4087 36.1986 13.4441 35.219C14.4796 34.2395 15.8509 33.6936 17.2763 33.6936C18.7016 33.6936 20.0729 34.2395 21.1084 35.219C22.1438 36.1986 22.7649 37.5375 22.8439 38.9606C22.8439 39.2559 22.7266 39.539 22.5179 39.7477C22.3091 39.9565 22.026 40.0737 21.7308 40.0737C21.4356 40.0737 21.1525 39.9565 20.9437 39.7477C20.735 39.539 20.6177 39.2559 20.6177 38.9606C20.5956 38.0894 20.234 37.2612 19.61 36.6528C18.9859 36.0444 18.1489 35.7039 17.2773 35.7039C16.4058 35.7039 15.5687 36.0444 14.9447 36.6528C14.3207 37.2612 13.959 38.0894 13.937 38.9606C13.9443 40.9778 14.7335 42.9135 16.1385 44.3609C17.5435 45.8083 19.455 46.6545 21.4711 46.7217C23.4871 46.7889 25.4507 46.0719 26.949 44.7213C28.4473 43.3707 29.3636 41.4919 29.5053 39.4797V39.4561C29.5196 39.2913 29.5253 39.126 29.5225 38.9606C29.5204 38.7912 29.5118 38.6132 29.5032 38.4416Z" fill="#80D07C"/>
</svg>
