<svg width="136px" class="ghostie flex items-center justify-center" height="129px" viewBox="0 0 136 129" version="1.1"
    xmlns="http://www.w3.org/2000/svg" xmlns:xlink="http://www.w3.org/1999/xlink">
    <title>Ghost-Mild</title>
    <defs>
        <filter id="shadow2">
            <feDropShadow dx="0" dy="0" stdDeviation="2" flood-color="#d191de" />
            <feDropShadow dx="0" dy="0" stdDeviation="1.5" flood-color="#71bae7" />
        </filter>

    </defs>
    <g id="Page-1" stroke="none" stroke-width="1" fill="none" fill-rule="evenodd">
        <g id="Ghost-Space" transform="translate(-305, -340)">
            <g id="Ghost-Mild" transform="translate(305.3333, 340)">
                <g id="Bod" fill="#FFFFFF">
                    <polygon id="Ectoball"
                        points="59.75 0 59.75 1.79362973 50.7916667 1.79362973 50.7916667 3.58526875 43.6269907 3.58526875 43.6269907 7.16854678 34.6686574 7.16854678 34.6686574 10.7518248 27.5 10.7518248 27.5 16.1267419 22.125 16.1267419 22.125 21.5016589 16.7519907 21.5016589 16.7519907 28.668215 13.1666667 28.668215 13.1666667 37.6264101 9.58333333 37.6264101 9.58333333 44.7909754 7.79365741 44.7909754 7.79365741 53.7491705 6 53.7491705 6 75.2508295 7.79365741 75.2508295 7.79365741 84.2090246 9.58333333 84.2090246 9.58333333 91.3755806 13.1666667 91.3755806 13.1666667 100.333776 16.7519907 100.333776 16.7519907 107.498341 22.125 107.498341 22.125 112.873258 27.5 112.873258 27.5 118.250166 34.6686574 118.250166 34.6686574 121.831453 43.6269907 121.831453 43.6269907 125.414731 50.7916667 125.414731 50.7916667 127.208361 59.75 127.208361 59.75 129 81.25 129 81.25 127.208361 90.2083333 127.208361 90.2083333 125.414731 97.3769907 125.414731 97.3769907 121.831453 106.335324 121.831453 106.335324 118.250166 113.5 118.250166 113.5 112.873258 118.875 112.873258 118.875 107.498341 124.251991 107.498341 124.251991 100.333776 127.833333 100.333776 127.833333 91.3755806 131.416667 91.3755806 131.416667 84.2090246 133.210324 84.2090246 133.210324 75.2508295 135 75.2508295 135 53.7491705 133.210324 53.7491705 133.210324 44.7909754 131.416667 44.7909754 131.416667 37.6264101 127.833333 37.6264101 127.833333 28.668215 124.251991 28.668215 124.251991 21.5016589 118.875 21.5016589 118.875 16.1267419 113.5 16.1267419 113.5 10.7518248 106.335324 10.7518248 106.335324 7.16854678 97.3769907 7.16854678 97.3769907 3.58526875 90.2083333 3.58526875 90.2083333 1.79362973 81.25 1.79362973 81.25 0">
                    </polygon>
                    <polygon id="Flagellum"
                        points="1.35555319 82 1.35555319 83.3080672 0 83.3080672 0 98.9990253 1.35555319 98.9990253 1.35555319 100.309042 9.50101161 100.309042 9.50101161 104.231294 8.1434352 104.231294 8.1434352 106.847428 1.35555319 106.847428 1.35555319 108.153546 0 108.153546 0 114.693882 1.35555319 114.693882 1.35555319 116 10.8545416 116 10.8545416 114.693882 13.5696944 114.693882 13.5696944 112.079697 16.2848472 112.079697 16.2848472 109.463563 17.6444468 109.463563 17.6444468 104.231294 19 104.231294 19 83.3080672 17.6444468 83.3080672 17.6444468 82">
                    </polygon>
                </g>
                <g id="Mild-Face" transform="translate(50, 38)" fill="#000000">
                    <polygon id="Eye---Left"
                        points="7.0724506 0.641835112 7.0724506 2.56938451 7.71428571 2.56938451 7.71428571 4.49897797 8.35816489 4.49897797 8.35816489 6.42652737 9 6.42652737 9 8.35612083 8.35816489 8.35612083 8.35816489 9 4.50102203 9 4.50102203 8.35612083 3.85918692 8.35612083 3.85918692 6.42652737 2.57142857 6.42652737 2.57142857 4.49897797 1.28571429 4.49897797 1.28571429 2.56938451 0 2.56938451 0 0.641835112 0.641835112 0.641835112 0.641835112 0 6.43061549 0 6.43061549 0.641835112">
                    </polygon>
                    <polygon id="Mouth"
                        points="40.3948738 25 40.3948738 25.5990461 41 25.5990461 41 30.3990461 40.3948738 30.3990461 40.3948738 31 21.6051262 31 21.6051262 30.3990461 21 30.3990461 21 25.5990461 21.6051262 25.5990461 21.6051262 25">
                    </polygon>
                    <polygon id="Eye---Right"
                        points="52.0724506 0.641835112 52.0724506 2.56938451 52.7142857 2.56938451 52.7142857 4.49897797 53.3581649 4.49897797 53.3581649 6.42652737 54 6.42652737 54 8.35612083 53.3581649 8.35612083 53.3581649 9 49.501022 9 49.501022 8.35612083 48.8591869 8.35612083 48.8591869 6.42652737 47.5714286 6.42652737 47.5714286 4.49897797 46.2857143 4.49897797 46.2857143 2.56938451 45 2.56938451 45 0.641835112 45.6418351 0.641835112 45.6418351 0 51.4306155 0 51.4306155 0.641835112">
                    </polygon>
                </g>
            </g>
        </g>
    </g>
</svg>