<svg width="135px" class="ghostie flex items-center justify-center" height="129px" viewBox="0 0 135 129" version="1.1"
    xmlns="http://www.w3.org/2000/svg" xmlns:xlink="http://www.w3.org/1999/xlink">
    <title>Ghost-Disbelieving</title>
    <defs>
        <filter id="shadow2">
            <feDropShadow dx="0" dy="0" stdDeviation="2" flood-color="#d191de" />
            <feDropShadow dx="0" dy="0" stdDeviation="1.5" flood-color="#71bae7" />
        </filter>
    </defs>
    <g id="Page-1" stroke="none" stroke-width="1" fill="none" fill-rule="evenodd">
        <g id="Ghost-Space" transform="translate(-1387, -341)">
            <g id="Ghost-Disbelieving" transform="translate(1387, 341)">
                <g id="Bod" fill="#FFFFFF">
                    <polygon id="Ectoball"
                        points="59.75 0 59.75 1.79362973 50.7916667 1.79362973 50.7916667 3.58526875 43.6269907 3.58526875 43.6269907 7.16854678 34.6686574 7.16854678 34.6686574 10.7518248 27.5 10.7518248 27.5 16.1267419 22.125 16.1267419 22.125 21.5016589 16.7519907 21.5016589 16.7519907 28.668215 13.1666667 28.668215 13.1666667 37.6264101 9.58333333 37.6264101 9.58333333 44.7909754 7.79365741 44.7909754 7.79365741 53.7491705 6 53.7491705 6 75.2508295 7.79365741 75.2508295 7.79365741 84.2090246 9.58333333 84.2090246 9.58333333 91.3755806 13.1666667 91.3755806 13.1666667 100.333776 16.7519907 100.333776 16.7519907 107.498341 22.125 107.498341 22.125 112.873258 27.5 112.873258 27.5 118.250166 34.6686574 118.250166 34.6686574 121.831453 43.6269907 121.831453 43.6269907 125.414731 50.7916667 125.414731 50.7916667 127.208361 59.75 127.208361 59.75 129 81.25 129 81.25 127.208361 90.2083333 127.208361 90.2083333 125.414731 97.3769907 125.414731 97.3769907 121.831453 106.335324 121.831453 106.335324 118.250166 113.5 118.250166 113.5 112.873258 118.875 112.873258 118.875 107.498341 124.251991 107.498341 124.251991 100.333776 127.833333 100.333776 127.833333 91.3755806 131.416667 91.3755806 131.416667 84.2090246 133.210324 84.2090246 133.210324 75.2508295 135 75.2508295 135 53.7491705 133.210324 53.7491705 133.210324 44.7909754 131.416667 44.7909754 131.416667 37.6264101 127.833333 37.6264101 127.833333 28.668215 124.251991 28.668215 124.251991 21.5016589 118.875 21.5016589 118.875 16.1267419 113.5 16.1267419 113.5 10.7518248 106.335324 10.7518248 106.335324 7.16854678 97.3769907 7.16854678 97.3769907 3.58526875 90.2083333 3.58526875 90.2083333 1.79362973 81.25 1.79362973 81.25 0">
                    </polygon>
                    <polygon id="Flagellum"
                        points="1.35555319 82 1.35555319 83.3080672 0 83.3080672 0 98.9990253 1.35555319 98.9990253 1.35555319 100.309042 9.50101161 100.309042 9.50101161 104.231294 8.1434352 104.231294 8.1434352 106.847428 1.35555319 106.847428 1.35555319 108.153546 0 108.153546 0 114.693882 1.35555319 114.693882 1.35555319 116 10.8545416 116 10.8545416 114.693882 13.5696944 114.693882 13.5696944 112.079697 16.2848472 112.079697 16.2848472 109.463563 17.6444468 109.463563 17.6444468 104.231294 19 104.231294 19 83.3080672 17.6444468 83.3080672 17.6444468 82">
                    </polygon>
                </g>
                <g id="Disbelieving-Face" transform="translate(39, 39)" fill="#000000">
                    <path
                        d="M4.29107692,12.5 L4.29107692,13.75 L4.90297436,13.75 L4.90297436,15.0019873 L5.51682051,15.0019873 L5.51682051,15.6259936 L6.7425641,15.6259936 L6.7425641,16.2519873 L12.2574359,16.2519873 L12.2574359,15.6259936 L13.4831795,15.6259936 L13.4831795,15.0019873 L14.0950769,15.0019873 L14.0950769,13.75 L14.7089231,13.75 L14.7089231,12.5 L15.3208205,12.5 L15.3208205,7.5 L14.7089231,7.5 L14.7089231,6.24801272 L14.0950769,6.24801272 L14.0950769,5 L13.4831795,5 L13.4831795,4.37400636 L12.2574359,4.37400636 L12.2574359,3.75 L6.7425641,3.75 L6.7425641,4.37400636 L5.51682051,4.37400636 L5.51682051,5 L4.90297436,5 L4.90297436,6.24801272 L4.29107692,6.24801272 L4.29107692,7.5 L3.67723077,7.5 L3.67723077,12.5 L4.29107692,12.5 Z M0,13.1240064 L0,6.87400636 L0.611897436,6.87400636 L0.611897436,5 L1.22574359,5 L1.22574359,3.75 L1.83764103,3.75 L1.83764103,3.12400636 L2.45148718,3.12400636 L2.45148718,2.5 L3.06338462,2.5 L3.06338462,1.87400636 L3.67723077,1.87400636 L3.67723077,1.25 L4.29107692,1.25 L4.29107692,0.624006359 L6.12871795,0.624006359 L6.12871795,0 L12.8693333,0 L12.8693333,0.624006359 L14.7089231,0.624006359 L14.7089231,1.25 L15.3208205,1.25 L15.3208205,1.87400636 L15.9346667,1.87400636 L15.9346667,2.5 L16.5465641,2.5 L16.5465641,3.12400636 L17.1604103,3.12400636 L17.1604103,3.75 L17.7742564,3.75 L17.7742564,5 L18.3861538,5 L18.3861538,6.87400636 L19,6.87400636 L19,13.1240064 L18.3861538,13.1240064 L18.3861538,15.0019873 L17.7742564,15.0019873 L17.7742564,16.2519873 L17.1604103,16.2519873 L17.1604103,16.8759936 L16.5465641,16.8759936 L16.5465641,17.5019873 L15.9346667,17.5019873 L15.9346667,18.1259936 L15.3208205,18.1259936 L15.3208205,18.7519873 L14.7089231,18.7519873 L14.7089231,19.3759936 L12.8693333,19.3759936 L12.8693333,20 L6.12871795,20 L6.12871795,19.3759936 L4.29107692,19.3759936 L4.29107692,18.7519873 L3.67723077,18.7519873 L3.67723077,18.1259936 L3.06338462,18.1259936 L3.06338462,17.5019873 L2.45148718,17.5019873 L2.45148718,16.8759936 L1.83764103,16.8759936 L1.83764103,16.2519873 L1.22574359,16.2519873 L1.22574359,15.0019873 L0.611897436,15.0019873 L0.611897436,13.1240064 L0,13.1240064 Z"
                        id="Eye---Left"></path>
                    <path
                        d="M51.6541785,37.150159 L53.5444805,37.150159 L53.5444805,35.9049133 L54.8053501,35.9049133 L54.8053501,34.0380347 L55.4367872,34.0380347 L55.4367872,31.5455636 L56.0662197,31.5455636 L56.0662197,23.4524567 L55.4367872,23.4524567 L55.4367872,20.9619653 L54.8053501,20.9619653 L54.8053501,19.0950867 L53.5444805,19.0950867 L53.5444805,17.849841 L51.6541785,17.849841 L51.6541785,17.2282081 L45.3478261,17.2282081 L45.3478261,17.849841 L43.457524,17.849841 L43.457524,19.0950867 L42.1966545,19.0950867 L42.1966545,20.9619653 L41.567222,20.9619653 L41.567222,23.4524567 L40.9357849,23.4524567 L40.9357849,31.5455636 L41.567222,31.5455636 L41.567222,34.0380347 L42.1966545,34.0380347 L42.1966545,35.9049133 L43.457524,35.9049133 L43.457524,37.150159 L45.3478261,37.150159 L45.3478261,37.7717919 L51.6541785,37.7717919 L51.6541785,37.150159 Z M52.283611,11 L52.283611,11.621633 L54.8053501,11.621633 L54.8053501,12.8668786 L57.3270892,12.8668786 L57.3270892,14.114104 L59.2173913,14.114104 L59.2173913,15.3593497 L60.4782609,15.3593497 L60.4782609,17.2282081 L61.7391304,17.2282081 L61.7391304,19.7167197 L62.3705675,19.7167197 L62.3705675,22.8308237 L63,22.8308237 L63,32.1671966 L62.3705675,32.1671966 L62.3705675,35.2832803 L61.7391304,35.2832803 L61.7391304,37.7717919 L60.4782609,37.7717919 L60.4782609,39.6406503 L59.2173913,39.6406503 L59.2173913,40.8878757 L57.3270892,40.8878757 L57.3270892,42.1331214 L54.8053501,42.1331214 L54.8053501,43.378367 L52.283611,43.378367 L52.283611,44 L44.7183936,44 L44.7183936,43.378367 L42.1966545,43.378367 L42.1966545,42.1331214 L39.6749153,42.1331214 L39.6749153,40.8878757 L37.7826087,40.8878757 L37.7826087,39.6406503 L36.5217391,39.6406503 L36.5217391,37.7717919 L35.2608696,37.7717919 L35.2608696,35.2832803 L34.6314371,35.2832803 L34.6314371,32.1671966 L34,32.1671966 L34,22.8308237 L34.6314371,22.8308237 L34.6314371,19.7167197 L35.2608696,19.7167197 L35.2608696,17.2282081 L36.5217391,17.2282081 L36.5217391,15.3593497 L37.7826087,15.3593497 L37.7826087,14.114104 L39.6749153,14.114104 L39.6749153,12.8668786 L42.1966545,12.8668786 L42.1966545,11.621633 L44.7183936,11.621633 L44.7183936,11 L52.283611,11 Z"
                        id="Mouth"></path>
                    <path
                        d="M76.2910769,12.5 L76.2910769,13.75 L76.9029744,13.75 L76.9029744,15.0019873 L77.5168205,15.0019873 L77.5168205,15.6259936 L78.7425641,15.6259936 L78.7425641,16.2519873 L84.2574359,16.2519873 L84.2574359,15.6259936 L85.4831795,15.6259936 L85.4831795,15.0019873 L86.0950769,15.0019873 L86.0950769,13.75 L86.7089231,13.75 L86.7089231,12.5 L87.3208205,12.5 L87.3208205,7.5 L86.7089231,7.5 L86.7089231,6.24801272 L86.0950769,6.24801272 L86.0950769,5 L85.4831795,5 L85.4831795,4.37400636 L84.2574359,4.37400636 L84.2574359,3.75 L78.7425641,3.75 L78.7425641,4.37400636 L77.5168205,4.37400636 L77.5168205,5 L76.9029744,5 L76.9029744,6.24801272 L76.2910769,6.24801272 L76.2910769,7.5 L75.6772308,7.5 L75.6772308,12.5 L76.2910769,12.5 Z M72,13.1240064 L72,6.87400636 L72.6118974,6.87400636 L72.6118974,5 L73.2257436,5 L73.2257436,3.75 L73.837641,3.75 L73.837641,3.12400636 L74.4514872,3.12400636 L74.4514872,2.5 L75.0633846,2.5 L75.0633846,1.87400636 L75.6772308,1.87400636 L75.6772308,1.25 L76.2910769,1.25 L76.2910769,0.624006359 L78.1287179,0.624006359 L78.1287179,0 L84.8693333,0 L84.8693333,0.624006359 L86.7089231,0.624006359 L86.7089231,1.25 L87.3208205,1.25 L87.3208205,1.87400636 L87.9346667,1.87400636 L87.9346667,2.5 L88.5465641,2.5 L88.5465641,3.12400636 L89.1604103,3.12400636 L89.1604103,3.75 L89.7742564,3.75 L89.7742564,5 L90.3861538,5 L90.3861538,6.87400636 L91,6.87400636 L91,13.1240064 L90.3861538,13.1240064 L90.3861538,15.0019873 L89.7742564,15.0019873 L89.7742564,16.2519873 L89.1604103,16.2519873 L89.1604103,16.8759936 L88.5465641,16.8759936 L88.5465641,17.5019873 L87.9346667,17.5019873 L87.9346667,18.1259936 L87.3208205,18.1259936 L87.3208205,18.7519873 L86.7089231,18.7519873 L86.7089231,19.3759936 L84.8693333,19.3759936 L84.8693333,20 L78.1287179,20 L78.1287179,19.3759936 L76.2910769,19.3759936 L76.2910769,18.7519873 L75.6772308,18.7519873 L75.6772308,18.1259936 L75.0633846,18.1259936 L75.0633846,17.5019873 L74.4514872,17.5019873 L74.4514872,16.8759936 L73.837641,16.8759936 L73.837641,16.2519873 L73.2257436,16.2519873 L73.2257436,15.0019873 L72.6118974,15.0019873 L72.6118974,13.1240064 L72,13.1240064 Z"
                        id="Eye---Right"></path>
                </g>
            </g>
        </g>
    </g>
</svg>