<svg width="136px" class="ghostie flex items-center justify-center" height="129px" viewBox="0 0 136 129" version="1.1"
    xmlns="http://www.w3.org/2000/svg" xmlns:xlink="http://www.w3.org/1999/xlink">
    <title>Ghost-WTF</title>
    <defs>
        <filter id="shadow2">
            <feDropShadow dx="0" dy="0" stdDeviation="2" flood-color="#d191de" />
            <feDropShadow dx="0" dy="0" stdDeviation="1.5" flood-color="#71bae7" />
        </filter>
    </defs>
    <g id="Page-1" stroke="none" stroke-width="1" fill="none" fill-rule="evenodd">
        <g id="Ghost-Space" transform="translate(-954, -340)">
            <g id="Ghost-WTF" transform="translate(954.3333, 340)">
                <g id="Bod" fill="#FFFFFF">
                    <polygon id="Ectoball"
                        points="59.75 0 59.75 1.79362973 50.7916667 1.79362973 50.7916667 3.58526875 43.6269907 3.58526875 43.6269907 7.16854678 34.6686574 7.16854678 34.6686574 10.7518248 27.5 10.7518248 27.5 16.1267419 22.125 16.1267419 22.125 21.5016589 16.7519907 21.5016589 16.7519907 28.668215 13.1666667 28.668215 13.1666667 37.6264101 9.58333333 37.6264101 9.58333333 44.7909754 7.79365741 44.7909754 7.79365741 53.7491705 6 53.7491705 6 75.2508295 7.79365741 75.2508295 7.79365741 84.2090246 9.58333333 84.2090246 9.58333333 91.3755806 13.1666667 91.3755806 13.1666667 100.333776 16.7519907 100.333776 16.7519907 107.498341 22.125 107.498341 22.125 112.873258 27.5 112.873258 27.5 118.250166 34.6686574 118.250166 34.6686574 121.831453 43.6269907 121.831453 43.6269907 125.414731 50.7916667 125.414731 50.7916667 127.208361 59.75 127.208361 59.75 129 81.25 129 81.25 127.208361 90.2083333 127.208361 90.2083333 125.414731 97.3769907 125.414731 97.3769907 121.831453 106.335324 121.831453 106.335324 118.250166 113.5 118.250166 113.5 112.873258 118.875 112.873258 118.875 107.498341 124.251991 107.498341 124.251991 100.333776 127.833333 100.333776 127.833333 91.3755806 131.416667 91.3755806 131.416667 84.2090246 133.210324 84.2090246 133.210324 75.2508295 135 75.2508295 135 53.7491705 133.210324 53.7491705 133.210324 44.7909754 131.416667 44.7909754 131.416667 37.6264101 127.833333 37.6264101 127.833333 28.668215 124.251991 28.668215 124.251991 21.5016589 118.875 21.5016589 118.875 16.1267419 113.5 16.1267419 113.5 10.7518248 106.335324 10.7518248 106.335324 7.16854678 97.3769907 7.16854678 97.3769907 3.58526875 90.2083333 3.58526875 90.2083333 1.79362973 81.25 1.79362973 81.25 0">
                    </polygon>
                    <polygon id="Flagellum"
                        points="1.35555319 82 1.35555319 83.3080672 0 83.3080672 0 98.9990253 1.35555319 98.9990253 1.35555319 100.309042 9.50101161 100.309042 9.50101161 104.231294 8.1434352 104.231294 8.1434352 106.847428 1.35555319 106.847428 1.35555319 108.153546 0 108.153546 0 114.693882 1.35555319 114.693882 1.35555319 116 10.8545416 116 10.8545416 114.693882 13.5696944 114.693882 13.5696944 112.079697 16.2848472 112.079697 16.2848472 109.463563 17.6444468 109.463563 17.6444468 104.231294 19 104.231294 19 83.3080672 17.6444468 83.3080672 17.6444468 82">
                    </polygon>
                </g>
                <g id="WTF-Face" transform="translate(27, 38)" fill="#000000">
                    <path
                        d="M14.8,38.7482888 L22.2,38.7482888 L22.2,38.12431 L24.0509804,38.12431 L24.0509804,36.8743652 L25.9,36.8743652 L25.9,35.6244204 L27.1333333,35.6244204 L27.1333333,33.7465224 L28.3666667,33.7465224 L28.3666667,31.24862 L29.6,31.24862 L29.6,28.1227644 L30.2156863,28.1227644 L30.2156863,16.8752484 L29.6,16.8752484 L29.6,13.7493928 L28.3666667,13.7493928 L28.3666667,11.2495032 L27.1333333,11.2495032 L27.1333333,9.3755796 L25.9,9.3755796 L25.9,8.1256348 L24.0509804,8.1256348 L24.0509804,6.8737028 L22.2,6.8737028 L22.2,6.249724 L14.8,6.249724 L14.8,6.8737028 L12.9509804,6.8737028 L12.9509804,8.1256348 L11.1,8.1256348 L11.1,9.3755796 L9.86666667,9.3755796 L9.86666667,11.2495032 L8.63333333,11.2495032 L8.63333333,13.7493928 L7.40196078,13.7493928 L7.40196078,16.8752484 L6.78431373,16.8752484 L6.78431373,28.1227644 L7.40196078,28.1227644 L7.40196078,31.24862 L8.63333333,31.24862 L8.63333333,33.7465224 L9.86666667,33.7465224 L9.86666667,35.6244204 L11.1,35.6244204 L11.1,36.8743652 L12.9509804,36.8743652 L12.9509804,38.12431 L14.8,38.12431 L14.8,38.7482888 Z M37,16.2512696 L37,28.7487304 L36.3843137,28.7487304 L36.3843137,32.4965776 L35.1509804,32.4965776 L35.1509804,35.6244204 L33.9176471,35.6244204 L33.9176471,37.498344 L32.6843137,37.498344 L32.6843137,39.3722676 L31.4509804,39.3722676 L31.4509804,40.6222124 L30.2156863,40.6222124 L30.2156863,41.8741444 L28.3666667,41.8741444 L28.3666667,43.1240892 L25.9,43.1240892 L25.9,44.374034 L22.8176471,44.374034 L22.8176471,45 L14.1843137,45 L14.1843137,44.374034 L11.1,44.374034 L11.1,43.1240892 L8.63333333,43.1240892 L8.63333333,41.8741444 L6.78431373,41.8741444 L6.78431373,40.6222124 L5.55098039,40.6222124 L5.55098039,39.3722676 L4.31764706,39.3722676 L4.31764706,37.498344 L3.08235294,37.498344 L3.08235294,35.6244204 L1.85098039,35.6244204 L1.85098039,32.4965776 L0.617647059,32.4965776 L0.617647059,28.7487304 L0,28.7487304 L0,16.2512696 L0.617647059,16.2512696 L0.617647059,12.499448 L1.85098039,12.499448 L1.85098039,9.3755796 L3.08235294,9.3755796 L3.08235294,7.49768161 L4.31764706,7.49768161 L4.31764706,5.623758 L5.55098039,5.623758 L5.55098039,4.3738132 L6.78431373,4.3738132 L6.78431373,3.1238684 L8.63333333,3.1238684 L8.63333333,1.8739236 L11.1,1.8739236 L11.1,0.623978803 L14.1843137,0.623978803 L14.1843137,0 L22.8176471,0 L22.8176471,0.623978803 L25.9,0.623978803 L25.9,1.8739236 L28.3666667,1.8739236 L28.3666667,3.1238684 L30.2156863,3.1238684 L30.2156863,4.3738132 L31.4509804,4.3738132 L31.4509804,5.623758 L32.6843137,5.623758 L32.6843137,7.49768161 L33.9176471,7.49768161 L33.9176471,9.3755796 L35.1509804,9.3755796 L35.1509804,12.499448 L36.3843137,12.499448 L36.3843137,16.2512696 L37,16.2512696 Z"
                        id="Eye---Left"></path>
                    <polygon id="Mouth"
                        points="70.3735661 38 70.3735661 38.5988557 71 38.5988557 71 43.3992371 70.3735661 43.3992371 70.3735661 44 39.6284289 44 39.6284289 43.3992371 39 43.3992371 39 38.5988557 39.6284289 38.5988557 39.6284289 38">
                    </polygon>
                    <path
                        d="M90.6541785,38.150159 L92.5444805,38.150159 L92.5444805,36.9049133 L93.8053501,36.9049133 L93.8053501,35.0380347 L94.4367872,35.0380347 L94.4367872,32.5455636 L95.0662197,32.5455636 L95.0662197,24.4524567 L94.4367872,24.4524567 L94.4367872,21.9619653 L93.8053501,21.9619653 L93.8053501,20.0950867 L92.5444805,20.0950867 L92.5444805,18.849841 L90.6541785,18.849841 L90.6541785,18.2282081 L84.3478261,18.2282081 L84.3478261,18.849841 L82.457524,18.849841 L82.457524,20.0950867 L81.1966545,20.0950867 L81.1966545,21.9619653 L80.567222,21.9619653 L80.567222,24.4524567 L79.9357849,24.4524567 L79.9357849,32.5455636 L80.567222,32.5455636 L80.567222,35.0380347 L81.1966545,35.0380347 L81.1966545,36.9049133 L82.457524,36.9049133 L82.457524,38.150159 L84.3478261,38.150159 L84.3478261,38.7717919 L90.6541785,38.7717919 L90.6541785,38.150159 Z M91.283611,12 L91.283611,12.621633 L93.8053501,12.621633 L93.8053501,13.8668786 L96.3270892,13.8668786 L96.3270892,15.114104 L98.2173913,15.114104 L98.2173913,16.3593497 L99.4782609,16.3593497 L99.4782609,18.2282081 L100.73913,18.2282081 L100.73913,20.7167197 L101.370567,20.7167197 L101.370567,23.8308237 L102,23.8308237 L102,33.1671966 L101.370567,33.1671966 L101.370567,36.2832803 L100.73913,36.2832803 L100.73913,38.7717919 L99.4782609,38.7717919 L99.4782609,40.6406503 L98.2173913,40.6406503 L98.2173913,41.8878757 L96.3270892,41.8878757 L96.3270892,43.1331214 L93.8053501,43.1331214 L93.8053501,44.378367 L91.283611,44.378367 L91.283611,45 L83.7183936,45 L83.7183936,44.378367 L81.1966545,44.378367 L81.1966545,43.1331214 L78.6749153,43.1331214 L78.6749153,41.8878757 L76.7826087,41.8878757 L76.7826087,40.6406503 L75.5217391,40.6406503 L75.5217391,38.7717919 L74.2608696,38.7717919 L74.2608696,36.2832803 L73.6314371,36.2832803 L73.6314371,33.1671966 L73,33.1671966 L73,23.8308237 L73.6314371,23.8308237 L73.6314371,20.7167197 L74.2608696,20.7167197 L74.2608696,18.2282081 L75.5217391,18.2282081 L75.5217391,16.3593497 L76.7826087,16.3593497 L76.7826087,15.114104 L78.6749153,15.114104 L78.6749153,13.8668786 L81.1966545,13.8668786 L81.1966545,12.621633 L83.7183936,12.621633 L83.7183936,12 L91.283611,12 Z"
                        id="Eye---Right"></path>
                </g>
            </g>
        </g>
    </g>
</svg>