<svg class="ghostie flex items-center justify-center" width="136px" height="129px" viewBox="0 0 136 129" version="1.1"
    xmlns="http://www.w3.org/2000/svg" xmlns:xlink="http://www.w3.org/1999/xlink">
    <title>Ghost-Exasperated</title>
    <defs>
        <filter id="shadow2">
            <feDropShadow dx="0" dy="0" stdDeviation="2" flood-color="#d191de" />
            <feDropShadow dx="0" dy="0" stdDeviation="1.5" flood-color="#71bae7" />
        </filter>
    </defs>
    <g id="Page-1" stroke="none" stroke-width="1" fill="none" fill-rule="evenodd">
        <g id="Ghost-Space" transform="translate(-1170, -340)">
            <g id="Ghost-Exasperated" transform="translate(1170.6667, 340)">
                <g id="Bod" fill="#FFFFFF">
                    <polygon id="Ectoball"
                        points="59.75 0 59.75 1.79362973 50.7916667 1.79362973 50.7916667 3.58526875 43.6269907 3.58526875 43.6269907 7.16854678 34.6686574 7.16854678 34.6686574 10.7518248 27.5 10.7518248 27.5 16.1267419 22.125 16.1267419 22.125 21.5016589 16.7519907 21.5016589 16.7519907 28.668215 13.1666667 28.668215 13.1666667 37.6264101 9.58333333 37.6264101 9.58333333 44.7909754 7.79365741 44.7909754 7.79365741 53.7491705 6 53.7491705 6 75.2508295 7.79365741 75.2508295 7.79365741 84.2090246 9.58333333 84.2090246 9.58333333 91.3755806 13.1666667 91.3755806 13.1666667 100.333776 16.7519907 100.333776 16.7519907 107.498341 22.125 107.498341 22.125 112.873258 27.5 112.873258 27.5 118.250166 34.6686574 118.250166 34.6686574 121.831453 43.6269907 121.831453 43.6269907 125.414731 50.7916667 125.414731 50.7916667 127.208361 59.75 127.208361 59.75 129 81.25 129 81.25 127.208361 90.2083333 127.208361 90.2083333 125.414731 97.3769907 125.414731 97.3769907 121.831453 106.335324 121.831453 106.335324 118.250166 113.5 118.250166 113.5 112.873258 118.875 112.873258 118.875 107.498341 124.251991 107.498341 124.251991 100.333776 127.833333 100.333776 127.833333 91.3755806 131.416667 91.3755806 131.416667 84.2090246 133.210324 84.2090246 133.210324 75.2508295 135 75.2508295 135 53.7491705 133.210324 53.7491705 133.210324 44.7909754 131.416667 44.7909754 131.416667 37.6264101 127.833333 37.6264101 127.833333 28.668215 124.251991 28.668215 124.251991 21.5016589 118.875 21.5016589 118.875 16.1267419 113.5 16.1267419 113.5 10.7518248 106.335324 10.7518248 106.335324 7.16854678 97.3769907 7.16854678 97.3769907 3.58526875 90.2083333 3.58526875 90.2083333 1.79362973 81.25 1.79362973 81.25 0">
                    </polygon>
                    <polygon id="Flagellum"
                        points="1.35555319 82 1.35555319 83.3080672 0 83.3080672 0 98.9990253 1.35555319 98.9990253 1.35555319 100.309042 9.50101161 100.309042 9.50101161 104.231294 8.1434352 104.231294 8.1434352 106.847428 1.35555319 106.847428 1.35555319 108.153546 0 108.153546 0 114.693882 1.35555319 114.693882 1.35555319 116 10.8545416 116 10.8545416 114.693882 13.5696944 114.693882 13.5696944 112.079697 16.2848472 112.079697 16.2848472 109.463563 17.6444468 109.463563 17.6444468 104.231294 19 104.231294 19 83.3080672 17.6444468 83.3080672 17.6444468 82">
                    </polygon>
                </g>
                <g id="Exasperated-Face" transform="translate(30, 63)" fill="#000000">
                    <polygon id="Eye---Left"
                        points="19.3948738 0 19.3948738 0.599046105 20 0.599046105 20 5.3990461 19.3948738 5.3990461 19.3948738 6 0.605126229 6 0.605126229 5.3990461 0 5.3990461 0 0.599046105 0.605126229 0.599046105 0.605126229 0">
                    </polygon>
                    <polygon id="Mouth"
                        points="64.3735661 13 64.3735661 13.5988557 65 13.5988557 65 18.3992371 64.3735661 18.3992371 64.3735661 19 33.6284289 19 33.6284289 18.3992371 33 18.3992371 33 13.5988557 33.6284289 13.5988557 33.6284289 13">
                    </polygon>
                    <polygon id="Eye---Right"
                        points="96.3948738 0 96.3948738 0.599046105 97 0.599046105 97 5.3990461 96.3948738 5.3990461 96.3948738 6 77.6051262 6 77.6051262 5.3990461 77 5.3990461 77 0.599046105 77.6051262 0.599046105 77.6051262 0">
                    </polygon>
                </g>
            </g>
        </g>
    </g>
</svg>