<svg class="ghostie flex items-center justify-center" width="135px" height="129px" viewBox="0 0 135 129" version="1.1"
    xmlns="http://www.w3.org/2000/svg" xmlns:xlink="http://www.w3.org/1999/xlink">
    <title>Ghost-Happy</title>
    <defs>
        <filter id="shadow2">
            <feDropShadow dx="0" dy="0" stdDeviation="2" flood-color="#d191de" />
            <feDropShadow dx="0" dy="0" stdDeviation="1.5" flood-color="#71bae7" />
        </filter>
    </defs>
    <g id="Page-1" stroke="none" stroke-width="1" fill="none" fill-rule="evenodd">
        <g id="Ghost-Space" transform="translate(-89, -340)">
            <g id="Ghost-Happy" transform="translate(89, 340)">
                <g id="Bod" fill="#FFFFFF">
                    <polygon id="Ectoball"
                        points="59.75 0 59.75 1.79362973 50.7916667 1.79362973 50.7916667 3.58526875 43.6269907 3.58526875 43.6269907 7.16854678 34.6686574 7.16854678 34.6686574 10.7518248 27.5 10.7518248 27.5 16.1267419 22.125 16.1267419 22.125 21.5016589 16.7519907 21.5016589 16.7519907 28.668215 13.1666667 28.668215 13.1666667 37.6264101 9.58333333 37.6264101 9.58333333 44.7909754 7.79365741 44.7909754 7.79365741 53.7491705 6 53.7491705 6 75.2508295 7.79365741 75.2508295 7.79365741 84.2090246 9.58333333 84.2090246 9.58333333 91.3755806 13.1666667 91.3755806 13.1666667 100.333776 16.7519907 100.333776 16.7519907 107.498341 22.125 107.498341 22.125 112.873258 27.5 112.873258 27.5 118.250166 34.6686574 118.250166 34.6686574 121.831453 43.6269907 121.831453 43.6269907 125.414731 50.7916667 125.414731 50.7916667 127.208361 59.75 127.208361 59.75 129 81.25 129 81.25 127.208361 90.2083333 127.208361 90.2083333 125.414731 97.3769907 125.414731 97.3769907 121.831453 106.335324 121.831453 106.335324 118.250166 113.5 118.250166 113.5 112.873258 118.875 112.873258 118.875 107.498341 124.251991 107.498341 124.251991 100.333776 127.833333 100.333776 127.833333 91.3755806 131.416667 91.3755806 131.416667 84.2090246 133.210324 84.2090246 133.210324 75.2508295 135 75.2508295 135 53.7491705 133.210324 53.7491705 133.210324 44.7909754 131.416667 44.7909754 131.416667 37.6264101 127.833333 37.6264101 127.833333 28.668215 124.251991 28.668215 124.251991 21.5016589 118.875 21.5016589 118.875 16.1267419 113.5 16.1267419 113.5 10.7518248 106.335324 10.7518248 106.335324 7.16854678 97.3769907 7.16854678 97.3769907 3.58526875 90.2083333 3.58526875 90.2083333 1.79362973 81.25 1.79362973 81.25 0">
                    </polygon>
                    <polygon id="Flagellum"
                        points="1.35555319 82 1.35555319 83.3080672 0 83.3080672 0 98.9990253 1.35555319 98.9990253 1.35555319 100.309042 9.50101161 100.309042 9.50101161 104.231294 8.1434352 104.231294 8.1434352 106.847428 1.35555319 106.847428 1.35555319 108.153546 0 108.153546 0 114.693882 1.35555319 114.693882 1.35555319 116 10.8545416 116 10.8545416 114.693882 13.5696944 114.693882 13.5696944 112.079697 16.2848472 112.079697 16.2848472 109.463563 17.6444468 109.463563 17.6444468 104.231294 19 104.231294 19 83.3080672 17.6444468 83.3080672 17.6444468 82">
                    </polygon>
                </g>
                <g id="Happy-Face" transform="translate(37, 38)" fill="#000000">
                    <polygon id="Eye---Left"
                        points="23 19.6117369 23 21.3724564 22.3585576 21.3724564 22.3585576 22 16.3179678 22 16.3179678 21.3724564 15.6765254 21.3724564 15.6765254 17.5392442 14.5202949 17.5392442 14.5202949 14.331577 13.5560885 14.331577 13.5560885 10.184593 12.5285549 10.184593 12.5285549 7.10483285 10.4734879 7.10483285 10.4734879 10.184593 9.44391154 10.184593 9.44391154 14.331577 8.48174793 14.331577 8.48174793 17.5392442 7.32551736 17.5392442 7.32551736 21.3724564 6.68203215 21.3724564 6.68203215 22 0.643485212 22 0.643485212 21.3724564 0 21.3724564 0 19.6117369 1.02753353 19.6117369 1.02753353 16.2801599 2.18580691 16.2801599 2.18580691 13.2643532 3.14797051 13.2643532 3.14797051 10.184593 4.17550404 10.184593 4.17550404 7.10483285 5.65449862 7.10483285 5.65449862 3.08175872 7.06812328 3.08175872 7.06812328 0.629542151 7.71160849 0.629542151 7.71160849 0 15.2924771 0 15.2924771 0.629542151 15.9339195 0.629542151 15.9339195 3.08175872 17.3455014 3.08175872 17.3455014 7.10483285 18.824496 7.10483285 18.824496 10.184593 19.8520295 10.184593 19.8520295 13.2643532 20.8182787 13.2643532 20.8182787 16.2801599 21.9724665 16.2801599 21.9724665 19.6117369">
                    </polygon>
                    <polygon id="Mouth"
                        points="54.3948738 25 54.3948738 25.5990461 55 25.5990461 55 30.3990461 54.3948738 30.3990461 54.3948738 31 35.6051262 31 35.6051262 30.3990461 35 30.3990461 35 25.5990461 35.6051262 25.5990461 35.6051262 25">
                    </polygon>
                    <polygon id="Eye---Right"
                        points="84 19.6117369 84 21.3724564 83.3585576 21.3724564 83.3585576 22 77.3179678 22 77.3179678 21.3724564 76.6765254 21.3724564 76.6765254 17.5392442 75.5202949 17.5392442 75.5202949 14.331577 74.5560885 14.331577 74.5560885 10.184593 73.5285549 10.184593 73.5285549 7.10483285 71.4734879 7.10483285 71.4734879 10.184593 70.4439115 10.184593 70.4439115 14.331577 69.4817479 14.331577 69.4817479 17.5392442 68.3255174 17.5392442 68.3255174 21.3724564 67.6820322 21.3724564 67.6820322 22 61.6434852 22 61.6434852 21.3724564 61 21.3724564 61 19.6117369 62.0275335 19.6117369 62.0275335 16.2801599 63.1858069 16.2801599 63.1858069 13.2643532 64.1479705 13.2643532 64.1479705 10.184593 65.175504 10.184593 65.175504 7.10483285 66.6544986 7.10483285 66.6544986 3.08175872 68.0681233 3.08175872 68.0681233 0.629542151 68.7116085 0.629542151 68.7116085 0 76.2924771 0 76.2924771 0.629542151 76.9339195 0.629542151 76.9339195 3.08175872 78.3455014 3.08175872 78.3455014 7.10483285 79.824496 7.10483285 79.824496 10.184593 80.8520295 10.184593 80.8520295 13.2643532 81.8182787 13.2643532 81.8182787 16.2801599 82.9724665 16.2801599 82.9724665 19.6117369">
                    </polygon>
                </g>
            </g>
        </g>
    </g>
</svg>