<svg class="ghostie flex items-center justify-center" width="135px" height="129px" viewBox="0 0 135 129" version="1.1"
    xmlns="http://www.w3.org/2000/svg" xmlns:xlink="http://www.w3.org/1999/xlink">
    <title>Ghost-Double-Take </title>
    <defs>
        <filter id="shadow2">
            <feDropShadow dx="0" dy="0" stdDeviation="2" flood-color="#d191de" />
            <feDropShadow dx="0" dy="0" stdDeviation="1.5" flood-color="#71bae7" />
        </filter>
    </defs>
    <g id="Page-1" stroke="none" stroke-width="1" fill="none" fill-rule="evenodd">
        <g id="Ghost-Space" transform="translate(-738, -340)">
            <g id="Ghost-Double-Take-" transform="translate(738, 340)">
                <g id="Bod" fill="#FFFFFF">
                    <polygon id="Ectoball"
                        points="59.75 0 59.75 1.79362973 50.7916667 1.79362973 50.7916667 3.58526875 43.6269907 3.58526875 43.6269907 7.16854678 34.6686574 7.16854678 34.6686574 10.7518248 27.5 10.7518248 27.5 16.1267419 22.125 16.1267419 22.125 21.5016589 16.7519907 21.5016589 16.7519907 28.668215 13.1666667 28.668215 13.1666667 37.6264101 9.58333333 37.6264101 9.58333333 44.7909754 7.79365741 44.7909754 7.79365741 53.7491705 6 53.7491705 6 75.2508295 7.79365741 75.2508295 7.79365741 84.2090246 9.58333333 84.2090246 9.58333333 91.3755806 13.1666667 91.3755806 13.1666667 100.333776 16.7519907 100.333776 16.7519907 107.498341 22.125 107.498341 22.125 112.873258 27.5 112.873258 27.5 118.250166 34.6686574 118.250166 34.6686574 121.831453 43.6269907 121.831453 43.6269907 125.414731 50.7916667 125.414731 50.7916667 127.208361 59.75 127.208361 59.75 129 81.25 129 81.25 127.208361 90.2083333 127.208361 90.2083333 125.414731 97.3769907 125.414731 97.3769907 121.831453 106.335324 121.831453 106.335324 118.250166 113.5 118.250166 113.5 112.873258 118.875 112.873258 118.875 107.498341 124.251991 107.498341 124.251991 100.333776 127.833333 100.333776 127.833333 91.3755806 131.416667 91.3755806 131.416667 84.2090246 133.210324 84.2090246 133.210324 75.2508295 135 75.2508295 135 53.7491705 133.210324 53.7491705 133.210324 44.7909754 131.416667 44.7909754 131.416667 37.6264101 127.833333 37.6264101 127.833333 28.668215 124.251991 28.668215 124.251991 21.5016589 118.875 21.5016589 118.875 16.1267419 113.5 16.1267419 113.5 10.7518248 106.335324 10.7518248 106.335324 7.16854678 97.3769907 7.16854678 97.3769907 3.58526875 90.2083333 3.58526875 90.2083333 1.79362973 81.25 1.79362973 81.25 0">
                    </polygon>
                    <polygon id="Flagellum"
                        points="1.35555319 82 1.35555319 83.3080672 0 83.3080672 0 98.9990253 1.35555319 98.9990253 1.35555319 100.309042 9.50101161 100.309042 9.50101161 104.231294 8.1434352 104.231294 8.1434352 106.847428 1.35555319 106.847428 1.35555319 108.153546 0 108.153546 0 114.693882 1.35555319 114.693882 1.35555319 116 10.8545416 116 10.8545416 114.693882 13.5696944 114.693882 13.5696944 112.079697 16.2848472 112.079697 16.2848472 109.463563 17.6444468 109.463563 17.6444468 104.231294 19 104.231294 19 83.3080672 17.6444468 83.3080672 17.6444468 82">
                    </polygon>
                </g>
                <g id="Double-Take-Face" transform="translate(30, 50)" fill="#000000">
                    <path
                        d="M17.6541785,26.150159 L19.5444805,26.150159 L19.5444805,24.9049133 L20.8053501,24.9049133 L20.8053501,23.0380347 L21.4367872,23.0380347 L21.4367872,20.5455636 L22.0662197,20.5455636 L22.0662197,12.4524567 L21.4367872,12.4524567 L21.4367872,9.96196532 L20.8053501,9.96196532 L20.8053501,8.09508669 L19.5444805,8.09508669 L19.5444805,6.84984102 L17.6541785,6.84984102 L17.6541785,6.22820805 L11.3478261,6.22820805 L11.3478261,6.84984102 L9.45752402,6.84984102 L9.45752402,8.09508669 L8.19665445,8.09508669 L8.19665445,9.96196532 L7.56722195,9.96196532 L7.56722195,12.4524567 L6.93578489,12.4524567 L6.93578489,20.5455636 L7.56722195,20.5455636 L7.56722195,23.0380347 L8.19665445,23.0380347 L8.19665445,24.9049133 L9.45752402,24.9049133 L9.45752402,26.150159 L11.3478261,26.150159 L11.3478261,26.7717919 L17.6541785,26.7717919 L17.6541785,26.150159 Z M18.283611,0 L18.283611,0.621632971 L20.8053501,0.621632971 L20.8053501,1.86687864 L23.3270892,1.86687864 L23.3270892,3.11410403 L25.2173913,3.11410403 L25.2173913,4.35934969 L26.4782609,4.35934969 L26.4782609,6.22820805 L27.7391304,6.22820805 L27.7391304,8.71671966 L28.3705675,8.71671966 L28.3705675,11.8308237 L29,11.8308237 L29,21.1671966 L28.3705675,21.1671966 L28.3705675,24.2832803 L27.7391304,24.2832803 L27.7391304,26.7717919 L26.4782609,26.7717919 L26.4782609,28.6406503 L25.2173913,28.6406503 L25.2173913,29.8878757 L23.3270892,29.8878757 L23.3270892,31.1331214 L20.8053501,31.1331214 L20.8053501,32.378367 L18.283611,32.378367 L18.283611,33 L10.7183936,33 L10.7183936,32.378367 L8.19665445,32.378367 L8.19665445,31.1331214 L5.67491532,31.1331214 L5.67491532,29.8878757 L3.7826087,29.8878757 L3.7826087,28.6406503 L2.52173913,28.6406503 L2.52173913,26.7717919 L1.26086957,26.7717919 L1.26086957,24.2832803 L0.631437064,24.2832803 L0.631437064,21.1671966 L0,21.1671966 L0,11.8308237 L0.631437064,11.8308237 L0.631437064,8.71671966 L1.26086957,8.71671966 L1.26086957,6.22820805 L2.52173913,6.22820805 L2.52173913,4.35934969 L3.7826087,4.35934969 L3.7826087,3.11410403 L5.67491532,3.11410403 L5.67491532,1.86687864 L8.19665445,1.86687864 L8.19665445,0.621632971 L10.7183936,0.621632971 L10.7183936,0 L18.283611,0 Z"
                        id="Eye---Left"></path>
                    <polygon id="Mouth"
                        points="64.3735661 26 64.3735661 26.5988557 65 26.5988557 65 31.3992371 64.3735661 31.3992371 64.3735661 32 33.6284289 32 33.6284289 31.3992371 33 31.3992371 33 26.5988557 33.6284289 26.5988557 33.6284289 26">
                    </polygon>
                    <path
                        d="M85.6541785,26.150159 L87.5444805,26.150159 L87.5444805,24.9049133 L88.8053501,24.9049133 L88.8053501,23.0380347 L89.4367872,23.0380347 L89.4367872,20.5455636 L90.0662197,20.5455636 L90.0662197,12.4524567 L89.4367872,12.4524567 L89.4367872,9.96196532 L88.8053501,9.96196532 L88.8053501,8.09508669 L87.5444805,8.09508669 L87.5444805,6.84984102 L85.6541785,6.84984102 L85.6541785,6.22820805 L79.3478261,6.22820805 L79.3478261,6.84984102 L77.457524,6.84984102 L77.457524,8.09508669 L76.1966545,8.09508669 L76.1966545,9.96196532 L75.567222,9.96196532 L75.567222,12.4524567 L74.9357849,12.4524567 L74.9357849,20.5455636 L75.567222,20.5455636 L75.567222,23.0380347 L76.1966545,23.0380347 L76.1966545,24.9049133 L77.457524,24.9049133 L77.457524,26.150159 L79.3478261,26.150159 L79.3478261,26.7717919 L85.6541785,26.7717919 L85.6541785,26.150159 Z M86.283611,0 L86.283611,0.621632971 L88.8053501,0.621632971 L88.8053501,1.86687864 L91.3270892,1.86687864 L91.3270892,3.11410403 L93.2173913,3.11410403 L93.2173913,4.35934969 L94.4782609,4.35934969 L94.4782609,6.22820805 L95.7391304,6.22820805 L95.7391304,8.71671966 L96.3705675,8.71671966 L96.3705675,11.8308237 L97,11.8308237 L97,21.1671966 L96.3705675,21.1671966 L96.3705675,24.2832803 L95.7391304,24.2832803 L95.7391304,26.7717919 L94.4782609,26.7717919 L94.4782609,28.6406503 L93.2173913,28.6406503 L93.2173913,29.8878757 L91.3270892,29.8878757 L91.3270892,31.1331214 L88.8053501,31.1331214 L88.8053501,32.378367 L86.283611,32.378367 L86.283611,33 L78.7183936,33 L78.7183936,32.378367 L76.1966545,32.378367 L76.1966545,31.1331214 L73.6749153,31.1331214 L73.6749153,29.8878757 L71.7826087,29.8878757 L71.7826087,28.6406503 L70.5217391,28.6406503 L70.5217391,26.7717919 L69.2608696,26.7717919 L69.2608696,24.2832803 L68.6314371,24.2832803 L68.6314371,21.1671966 L68,21.1671966 L68,11.8308237 L68.6314371,11.8308237 L68.6314371,8.71671966 L69.2608696,8.71671966 L69.2608696,6.22820805 L70.5217391,6.22820805 L70.5217391,4.35934969 L71.7826087,4.35934969 L71.7826087,3.11410403 L73.6749153,3.11410403 L73.6749153,1.86687864 L76.1966545,1.86687864 L76.1966545,0.621632971 L78.7183936,0.621632971 L78.7183936,0 L86.283611,0 Z"
                        id="Eye---Right"></path>
                </g>
            </g>
        </g>
    </g>
</svg>